<svg width="141" height="34" viewBox="0 0 141 34" fill="none" xmlns="http://www.w3.org/2000/svg">
<path d="M18.264 13.3295C18.264 15.5695 17.528 17.5055 16.056 19.1375L17.832 20.9615L15.888 22.7135L14.04 20.8175C12.632 21.6335 11.136 22.0415 9.552 22.0415C7.136 22.0415 5.08 21.2015 3.384 19.5215C1.688 17.8255 0.84 15.7615 0.84 13.3295C0.84 10.8975 1.688 8.84149 3.384 7.16149C5.08 5.46549 7.136 4.61749 9.552 4.61749C11.968 4.61749 14.024 5.46549 15.72 7.16149C17.416 8.84149 18.264 10.8975 18.264 13.3295ZM9.552 19.3535C10.448 19.3535 11.288 19.1695 12.072 18.8015L9 15.6575L10.944 13.9055L14.16 17.1935C15.056 16.0895 15.504 14.8015 15.504 13.3295C15.504 11.6175 14.928 10.1855 13.776 9.03349C12.624 7.88149 11.216 7.30549 9.552 7.30549C7.888 7.30549 6.48 7.88149 5.328 9.03349C4.176 10.1855 3.6 11.6175 3.6 13.3295C3.6 15.0415 4.176 16.4735 5.328 17.6255C6.48 18.7775 7.888 19.3535 9.552 19.3535ZM31.5341 20.4575C30.3501 21.5135 28.8221 22.0415 26.9501 22.0415C25.0781 22.0415 23.5501 21.5135 22.3661 20.4575C21.1821 19.3855 20.5901 17.9535 20.5901 16.1615V4.92949H23.3501V15.9935C23.3501 17.0175 23.6461 17.8335 24.2381 18.4415C24.8461 19.0495 25.7501 19.3535 26.9501 19.3535C28.1501 19.3535 29.0461 19.0495 29.6381 18.4415C30.2461 17.8335 30.5501 17.0175 30.5501 15.9935V4.92949H33.3101V16.1615C33.3101 17.9535 32.7181 19.3855 31.5341 20.4575ZM36.4847 4.92949H39.2447V21.7295H36.4847V4.92949ZM50.5459 22.0415C48.0179 22.0415 45.9219 21.2095 44.2579 19.5455C42.5939 17.8655 41.7619 15.7935 41.7619 13.3295C41.7619 10.8655 42.5939 8.80149 44.2579 7.13749C45.9219 5.45749 48.0179 4.61749 50.5459 4.61749C52.0659 4.61749 53.4659 4.97749 54.7459 5.69749C56.0419 6.41749 57.0499 7.39349 57.7699 8.62549L55.3699 10.0175C54.9219 9.18549 54.2659 8.52949 53.4019 8.04949C52.5539 7.55349 51.6019 7.30549 50.5459 7.30549C48.7539 7.30549 47.2979 7.87349 46.1779 9.00949C45.0739 10.1455 44.5219 11.5855 44.5219 13.3295C44.5219 15.0735 45.0739 16.5135 46.1779 17.6495C47.2979 18.7855 48.7539 19.3535 50.5459 19.3535C51.6019 19.3535 52.5619 19.1135 53.4259 18.6335C54.2899 18.1375 54.9379 17.4735 55.3699 16.6415L57.7699 18.0095C57.0659 19.2415 56.0659 20.2255 54.7699 20.9615C53.4899 21.6815 52.0819 22.0415 50.5459 22.0415ZM72.7348 21.7295H69.4468L62.8228 13.7375V21.7295H60.0628V4.92949H62.8228V12.4655L69.2068 4.92949H72.4948L65.7028 13.1135L72.7348 21.7295ZM84.3638 7.56949H77.2838V12.2735H84.1238V14.9135H77.2838V21.7295H74.5238V4.92949H84.3638V7.56949ZM100.986 19.5215C99.3056 21.2015 97.2496 22.0415 94.8176 22.0415C92.3856 22.0415 90.3216 21.2015 88.6256 19.5215C86.9456 17.8255 86.1056 15.7615 86.1056 13.3295C86.1056 10.8975 86.9456 8.84149 88.6256 7.16149C90.3216 5.46549 92.3856 4.61749 94.8176 4.61749C97.2496 4.61749 99.3056 5.46549 100.986 7.16149C102.682 8.84149 103.53 10.8975 103.53 13.3295C103.53 15.7615 102.682 17.8255 100.986 19.5215ZM90.5696 17.6495C91.7216 18.7855 93.1376 19.3535 94.8176 19.3535C96.4976 19.3535 97.9056 18.7855 99.0416 17.6495C100.194 16.4975 100.77 15.0575 100.77 13.3295C100.77 11.6015 100.194 10.1695 99.0416 9.03349C97.9056 7.88149 96.4976 7.30549 94.8176 7.30549C93.1376 7.30549 91.7216 7.88149 90.5696 9.03349C89.4336 10.1695 88.8656 11.6015 88.8656 13.3295C88.8656 15.0575 89.4336 16.4975 90.5696 17.6495ZM120.087 19.5215C118.407 21.2015 116.351 22.0415 113.919 22.0415C111.487 22.0415 109.423 21.2015 107.727 19.5215C106.047 17.8255 105.207 15.7615 105.207 13.3295C105.207 10.8975 106.047 8.84149 107.727 7.16149C109.423 5.46549 111.487 4.61749 113.919 4.61749C116.351 4.61749 118.407 5.46549 120.087 7.16149C121.783 8.84149 122.631 10.8975 122.631 13.3295C122.631 15.7615 121.783 17.8255 120.087 19.5215ZM109.671 17.6495C110.823 18.7855 112.239 19.3535 113.919 19.3535C115.599 19.3535 117.007 18.7855 118.143 17.6495C119.295 16.4975 119.871 15.0575 119.871 13.3295C119.871 11.6015 119.295 10.1695 118.143 9.03349C117.007 7.88149 115.599 7.30549 113.919 7.30549C112.239 7.30549 110.823 7.88149 109.671 9.03349C108.535 10.1695 107.967 11.6015 107.967 13.3295C107.967 15.0575 108.535 16.4975 109.671 17.6495ZM131.749 4.92949C134.053 4.92949 135.965 5.73749 137.485 7.35349C139.021 8.96949 139.789 10.9615 139.789 13.3295C139.789 15.6815 139.021 17.6735 137.485 19.3055C135.965 20.9215 134.053 21.7295 131.749 21.7295H125.149V4.92949H131.749ZM131.749 19.0895C133.333 19.0895 134.621 18.5455 135.613 17.4575C136.621 16.3695 137.125 14.9935 137.125 13.3295C137.125 11.6495 136.621 10.2735 135.613 9.20149C134.621 8.11349 133.333 7.56949 131.749 7.56949H127.909V19.0895H131.749Z" fill="white"/>
<rect y="31.7295" width="141" height="2" fill="white"/>
</svg>
